<?xml version="1.0" encoding="utf-8"?>
<!-- Generator: Adobe Illustrator 16.0.0, SVG Export Plug-In . SVG Version: 6.00 Build 0)  -->
<!DOCTYPE svg PUBLIC "-//W3C//DTD SVG 1.1//EN" "http://www.w3.org/Graphics/SVG/1.1/DTD/svg11.dtd">
<svg version="1.1" id="Capa_1" xmlns="http://www.w3.org/2000/svg" xmlns:xlink="http://www.w3.org/1999/xlink" x="0px" y="0px"
	 width="175.838px" height="175.839px" viewBox="312.478 203.182 175.838 175.839"
	 enable-background="new 312.478 203.182 175.838 175.839" xml:space="preserve">
<g>
	<path fill-rule="evenodd" clip-rule="evenodd" fill="#ED9893" d="M487.963,290.924c0,48.458-39.283,87.742-87.743,87.742
		c-48.458,0-87.742-39.284-87.742-87.742"/>
	<path fill-rule="evenodd" clip-rule="evenodd" fill="#3E465B" d="M312.478,290.924c0-48.459,39.284-87.742,87.742-87.742
		c48.46,0,87.743,39.283,87.743,87.742"/>
</g>
<g>
	<g>
		<path fill-rule="evenodd" clip-rule="evenodd" fill="#FFFFFF" d="M360.921,317.589c-0.413-3.508-0.656-7.046-1.297-10.516
			c-0.431-2.334-1.418-4.54-3.588-6.041c-2.927-2.026-7.015-0.984-8.831,1.923c-1.35,2.163-1.967,4.543-2.136,7.031
			c-0.183,2.673-0.221,5.355-0.427,8.024c-0.072,0.932-0.317,1.905-0.728,2.749c-0.902,1.852-1.927,1.799-3.359,0.622
			c-1.442-1.183-2.382-2.801-2.917-4.518c-1.024-3.294-2.034-6.61-2.683-9.985c-0.559-2.915-0.494-5.921-0.082-8.889
			c0.269-1.929,0.61-3.852,0.746-5.791c0.06-0.857-0.218-1.774-0.501-2.613c-1.634-4.822-3.511-9.577-4.919-14.459
			c-1.059-3.671-0.705-7.373,1.79-10.586c1.938-2.496,5.229-4.054,8.56-2.929c2.451,0.828,4.909,1.689,7.243,2.78
			c2.46,1.149,4.697,0.863,6.923-0.386c5.039-2.826,10.046-2.917,15.096,0.001c2.265,1.308,3.747,3.142,4.274,5.625
			c0.444,2.09,0.192,4.2-0.258,6.27c-0.978,4.483-2.786,8.697-4.542,12.922c-0.583,1.403-0.661,2.78-0.365,4.267
			c0.409,2.056,0.67,4.142,0.927,6.224c0.14,1.14,0.244,2.301,0.189,3.446c-0.17,3.585-0.659,7.124-1.693,10.59
			c-0.748,2.502-1.604,4.944-3.127,7.108c-0.376,0.532-0.848,1.024-1.361,1.436c-0.608,0.49-1.401,0.798-2.138,0.438
			c-0.855-0.418-0.98-1.338-1.043-2.173c-0.064-0.844-0.014-1.692-0.014-2.54C360.747,317.609,360.834,317.601,360.921,317.589z"/>
		<path fill="#E7ECED" d="M362.396,323.464c-0.387,0-0.76-0.086-1.106-0.257c-1.415-0.69-1.531-2.232-1.588-2.974
			c-0.047-0.633-0.036-1.255-0.025-1.857c0.004-0.253,0.009-0.506,0.009-0.757v-0.874l0.158-0.018
			c-0.082-0.733-0.157-1.468-0.23-2.185c-0.248-2.408-0.504-4.896-0.947-7.292c-0.459-2.48-1.5-4.253-3.184-5.418
			c-0.83-0.574-1.814-0.877-2.847-0.877c-1.869,0-3.633,0.963-4.603,2.516c-1.166,1.866-1.816,4.02-1.991,6.581
			c-0.083,1.223-0.137,2.472-0.189,3.681c-0.062,1.424-0.125,2.899-0.238,4.354c-0.083,1.08-0.376,2.183-0.824,3.099
			c-0.241,0.496-0.978,2.006-2.516,2.006c-0.718,0-1.461-0.336-2.338-1.057c-1.475-1.209-2.591-2.934-3.229-4.981
			c-1.103-3.542-2.066-6.747-2.708-10.091c-0.535-2.785-0.565-5.796-0.091-9.206c0.071-0.51,0.146-1.018,0.223-1.528
			c0.206-1.379,0.419-2.805,0.515-4.196c0.048-0.688-0.207-1.514-0.451-2.232c-0.556-1.641-1.151-3.304-1.727-4.914
			c-1.116-3.119-2.27-6.345-3.206-9.588c-1.229-4.262-0.552-8.222,1.957-11.456c1.788-2.302,4.438-3.677,7.09-3.677
			c0.861,0,1.72,0.143,2.551,0.423c2.383,0.804,4.914,1.685,7.345,2.821c2.037,0.951,3.897,0.844,6.033-0.354
			c2.696-1.511,5.415-2.278,8.081-2.278c2.671,0,5.355,0.77,7.98,2.285c2.578,1.49,4.173,3.598,4.74,6.267
			c0.522,2.467,0.135,4.867-0.26,6.682c-0.941,4.32-2.648,8.422-4.301,12.388l-0.292,0.701c-0.481,1.161-0.58,2.336-0.308,3.702
			c0.426,2.149,0.699,4.351,0.938,6.293c0.123,0.997,0.255,2.308,0.195,3.611c-0.188,4.012-0.757,7.55-1.734,10.824
			c-0.739,2.48-1.647,5.093-3.264,7.39c-0.415,0.593-0.95,1.156-1.546,1.637C363.806,323.184,363.09,323.464,362.396,323.464z
			 M361.624,318.492c-0.01,0.553-0.017,1.078,0.022,1.593c0.066,0.875,0.192,1.221,0.499,1.371c0.081,0.04,0.16,0.059,0.251,0.059
			c0.239,0,0.549-0.139,0.85-0.38c0.454-0.365,0.86-0.793,1.173-1.238c1.374-1.954,2.189-4.141,2.992-6.826
			c0.93-3.118,1.469-6.505,1.652-10.356c0.055-1.157-0.069-2.362-0.183-3.282c-0.236-1.909-0.501-4.072-0.916-6.151
			c-0.345-1.738-0.208-3.319,0.421-4.831l0.293-0.702c1.618-3.887,3.292-7.904,4.195-12.054c0.355-1.624,0.703-3.757,0.258-5.861
			c-0.453-2.135-1.698-3.765-3.808-4.983c-2.322-1.342-4.68-2.023-7.004-2.023c-2.328,0-4.726,0.683-7.126,2.029
			c-1.481,0.831-2.897,1.234-4.328,1.234c-1.154,0-2.327-0.274-3.485-0.815c-2.34-1.093-4.812-1.953-7.143-2.74
			c-0.63-0.213-1.278-0.32-1.928-0.32c-2.054,0-4.129,1.093-5.551,2.924c-2.141,2.758-2.688,6.029-1.623,9.718
			c0.918,3.185,2.062,6.382,3.168,9.472c0.578,1.618,1.176,3.29,1.737,4.945c0.304,0.899,0.624,1.945,0.551,2.994
			c-0.103,1.467-0.321,2.932-0.532,4.349c-0.075,0.503-0.15,1.005-0.22,1.509c-0.443,3.195-0.42,5.999,0.074,8.57
			c0.623,3.244,1.571,6.395,2.655,9.881c0.524,1.685,1.425,3.086,2.604,4.054c0.672,0.553,0.993,0.612,1.101,0.612
			c0.2,0,0.486-0.339,0.764-0.909c0.343-0.703,0.567-1.555,0.633-2.397c0.109-1.42,0.172-2.876,0.234-4.285
			c0.052-1.222,0.107-2.482,0.191-3.729c0.197-2.889,0.944-5.336,2.283-7.48c1.323-2.118,3.72-3.434,6.256-3.434
			c1.43,0,2.799,0.423,3.956,1.224c2.13,1.474,3.435,3.655,3.991,6.667c0.458,2.472,0.718,5.001,0.97,7.444
			c0.105,1.03,0.215,2.095,0.337,3.135l0.115,0.974L361.624,318.492z"/>
	</g>
	<g>
		<rect x="423.211" y="278.952" fill="#8FDBF9" width="3.071" height="2.047"/>
	</g>
	<g>
		<rect x="466.199" y="278.952" fill="#8FDBF9" width="3.071" height="2.047"/>
	</g>
	<g>
		<rect x="426.282" y="276.905" fill="#C7CAC7" width="39.917" height="6.14"/>
	</g>
	<g>
		<path fill="#E7ECED" d="M450.277,303.768c-4.038-2.405-7.785,0.052-10.126,3.474c-0.38,0.558-0.714,1.137-1.028,1.719
			c0.091,0.22,0.182,0.433,0.282,0.673c1.15,2.719,4.31,8.679,8.121,7.546c1.93-0.572,2.945-2.761,3.749-4.411
			c0.622-1.283,1.815-3.255,2.4-4.996C452.927,306.159,451.897,304.732,450.277,303.768z"/>
	</g>
	<g>
		<path fill="#FFFFFF" d="M471.385,276.905c-0.139-1.425-0.364-1.56-0.728-2.922c-0.862-3.258-3.483-5.999-6.464-7.915
			c-4.415-2.84-10.46-3.235-15.478-1.16c-0.186,0.076-0.358,0.161-0.541,0.223c-2.345,0.813-1.911,1.039-4.264,0.347
			c-4.095-1.208-9.696-2.131-13.785-0.682c-5.789,2.051-8.505,6.353-8.96,12.109H471.385z"/>
		<path fill="#E7ECED" d="M472.458,277.88h-52.347l0.082-1.051c0.516-6.519,3.748-10.876,9.605-12.95
			c1.49-0.53,3.254-0.797,5.242-0.797c3.462,0,6.885,0.795,9.146,1.462c0.855,0.252,1.31,0.372,1.586,0.372
			c0.208,0,0.403-0.072,0.944-0.282c0.292-0.114,0.658-0.257,1.136-0.423c0.102-0.035,0.195-0.077,0.293-0.119
			c0.066-0.028,0.129-0.056,0.195-0.083c2.188-0.905,4.629-1.383,7.056-1.383c3.43,0,6.652,0.907,9.321,2.624
			c3.604,2.317,6.046,5.331,6.884,8.485c0.116,0.445,0.22,0.752,0.312,1.023c0.183,0.545,0.339,1.016,0.44,2.055L472.458,277.88z
			 M422.248,275.93h47.991c-0.051-0.182-0.106-0.351-0.173-0.551c-0.098-0.285-0.217-0.64-0.35-1.147
			c-0.711-2.682-2.857-5.291-6.052-7.344c-2.319-1.493-5.256-2.314-8.268-2.314c-2.175,0-4.355,0.427-6.31,1.235
			c-0.054,0.022-0.111,0.046-0.164,0.069c-0.145,0.063-0.286,0.124-0.431,0.174c-0.444,0.153-0.79,0.288-1.07,0.397
			c-0.643,0.248-1.067,0.414-1.649,0.414c-0.563,0-1.183-0.17-2.137-0.451c-2.141-0.632-5.366-1.383-8.596-1.383
			c-1.766,0-3.309,0.23-4.592,0.684C425.631,267.421,422.939,270.769,422.248,275.93z"/>
	</g>
	<g>
		<path fill="#FFFFFF" d="M421.111,286.564c1.549,10.298,2.782,21.278,6.796,30.966c0.734,1.775,2.124,5.432,4.125,5.432
			c1.887-0.799,2.653-2.582,3.349-4.365c1.503-3.857,2.401-7.888,4.772-11.355c2.34-3.422,6.086-5.88,10.127-3.475
			c4.053,2.414,4.481,7.656,5.8,11.714c1.07,3.301,3.789,11.106,7.201,5.131c2.155-3.779,2.939-8.068,3.881-12.259
			c1.859-8.301,4.849-16.483,3.996-25.307h-50.223C420.801,284.775,420.858,284.89,421.111,286.564z"/>
		<path fill="#E7ECED" d="M432.231,323.937h-0.199c-2.549,0-4.023-3.591-4.902-5.735l-0.124-0.299
			c-3.567-8.609-4.956-18.15-6.297-27.375c-0.186-1.281-0.371-2.554-0.563-3.819l-0.063-0.422c-0.21-1.375-0.244-1.685-0.117-3.316
			l0.07-0.898h52.007l0.086,0.881c0.68,7.01-1.017,13.641-2.653,20.054c-0.466,1.824-0.947,3.708-1.363,5.56
			c-0.101,0.444-0.197,0.89-0.295,1.338c-0.831,3.779-1.691,7.685-3.688,11.188c-1.029,1.806-2.134,2.681-3.374,2.681
			c-2.649,0-4.318-4.04-5.603-7.992c-0.292-0.901-0.544-1.865-0.786-2.799c-0.859-3.289-1.747-6.689-4.585-8.378
			c-0.92-0.548-1.854-0.825-2.782-0.825c-2.097,0-4.297,1.462-6.04,4.013c-1.622,2.369-2.519,5.004-3.469,7.793
			c-0.376,1.106-0.765,2.247-1.202,3.365c-0.642,1.652-1.525,3.916-3.874,4.909L432.231,323.937z M421.849,284.02
			c-0.032,0.712,0.019,1.038,0.16,1.972l0.065,0.426c0.191,1.268,0.377,2.544,0.564,3.828c1.324,9.107,2.694,18.525,6.168,26.911
			l0.124,0.303c0.486,1.181,1.739,4.233,2.932,4.509c1.328-0.667,1.948-2.03,2.608-3.726c0.422-1.08,0.804-2.202,1.175-3.285
			c0.95-2.791,1.934-5.677,3.704-8.268c2.144-3.135,4.86-4.862,7.648-4.862c1.284,0,2.556,0.371,3.779,1.1
			c3.525,2.099,4.56,6.062,5.473,9.56c0.249,0.948,0.482,1.846,0.756,2.69c1.948,5.998,3.27,6.646,3.748,6.646
			c0.444,0,1.073-0.635,1.681-1.697c1.851-3.245,2.678-7.006,3.478-10.643c0.097-0.448,0.195-0.898,0.296-1.346
			c0.422-1.88,0.906-3.777,1.378-5.615c1.526-5.975,3.104-12.145,2.672-18.503H421.849z"/>
	</g>
	<g>
		<rect x="426.282" y="278.952" fill="#8FDBF9" width="39.917" height="2.047"/>
	</g>
	<g>
		<path fill="#E7ECED" d="M446.242,271.787c6.606,0,12.201-3.13,14.121-7.452c-3.738-1.127-7.969-0.949-11.647,0.573
			c-0.186,0.076-0.361,0.161-0.541,0.223c-2.345,0.813-1.914,1.039-4.264,0.347c-3.469-1.023-8.011-1.827-11.808-1.172
			C434.012,268.645,439.616,271.787,446.242,271.787z"/>
	</g>
	<g>
		<path fill="#E7ECED" d="M471.158,283.045c0,0-14.083,4.777-15.194,12.282c-0.991,6.716-13.18,8.243-20.989-0.551
			c-1.343-1.512-2.289-3.325-2.984-5.225c-0.877-2.396-3.454-6.506-10.824-6.506H471.158z"/>
	</g>
	<g>
		<g>
			<g>
				<path fill-rule="evenodd" clip-rule="evenodd" fill="#E7ECED" d="M397.718,294.037c-3.144,0-6.289-0.079-9.43,0.029
					c-1.901,0.066-3.427-0.618-4.674-1.894c-4.33-4.433-7.246-9.657-8.375-15.78c-0.389-2.102-0.442-4.256,0.151-6.363
					c0.604-2.149,1.825-3.836,3.761-4.973c2.021-1.186,4.258-1.781,6.53-2.171c1.992-0.341,3.797,0.377,5.449,1.448
					c1.698,1.103,3.479,1.996,5.515,2.197c1.614,0.159,3.135-0.316,4.583-0.977c1.048-0.479,2.09-1.001,3.062-1.617
					c1.917-1.219,3.912-1.423,6.105-0.911c2.597,0.606,5.067,1.371,7.201,3.09c1.586,1.276,2.325,2.927,2.656,4.822
					c0.717,4.091-0.315,7.925-1.938,11.614c-1.567,3.562-3.57,6.862-6.404,9.593c-1.281,1.235-2.721,1.958-4.576,1.913
					C404.13,293.982,400.923,294.037,397.718,294.037z M397.639,291.166c2.929,0,5.865-0.116,8.785,0.045
					c1.725,0.095,2.923-0.589,4.014-1.721c2.838-2.941,4.74-6.427,6.039-10.281c0.864-2.568,1.473-5.156,0.901-7.871
					c-0.23-1.09-0.587-2.099-1.54-2.886c-1.675-1.38-3.631-1.996-5.665-2.541c-1.684-0.451-3.188-0.267-4.648,0.711
					c-0.827,0.556-1.744,0.997-2.653,1.417c-3.122,1.441-6.353,1.848-9.621,0.62c-1.379-0.516-2.609-1.415-3.962-2.015
					c-0.919-0.41-1.933-0.818-2.908-0.834c-1.058-0.018-2.125,0.413-3.182,0.664c-3.495,0.826-5.287,3.134-5.316,6.743
					c-0.025,3.05,0.932,5.858,2.104,8.601c1.204,2.82,2.878,5.364,4.985,7.593c1.004,1.062,2.087,1.895,3.789,1.801
					C391.711,291.049,394.679,291.166,397.639,291.166z"/>
			</g>
			<g>
				<path fill-rule="evenodd" clip-rule="evenodd" fill="#F2F2F2" d="M397.66,295.052c3.232,0,6.467-0.003,9.701,0
					c2.936,0.005,4.707,1.701,4.895,4.445c0.172,2.507-1.354,5.189-4.64,5.24c-6.652,0.104-13.307,0.069-19.961,0.007
					c-1.844-0.018-3.254-1.03-4.012-2.729c-0.852-1.912-0.611-3.748,0.771-5.356c0.944-1.099,2.152-1.631,3.633-1.616
					C391.25,295.074,394.456,295.052,397.66,295.052z M397.713,297.923c-3.204,0-6.407-0.04-9.608,0.038
					c-0.579,0.014-1.268,0.384-1.687,0.807c-0.585,0.59-0.5,1.36-0.05,2.103c0.469,0.774,1.152,1.028,1.992,1.028
					c6.281,0,12.565,0.001,18.848,0c1.26,0,2.256-0.913,2.225-2.032c-0.031-1.123-0.954-1.942-2.204-1.943
					C404.058,297.921,400.886,297.923,397.713,297.923z"/>
			</g>
			<g>
				<path fill-rule="evenodd" clip-rule="evenodd" fill="#F2F2F2" d="M397.672,305.785c2.713,0,5.426,0.064,8.133-0.021
					c2.397-0.074,4.072,1.371,4.575,3.171c0.681,2.429-0.147,4.8-2.029,5.918c-0.716,0.428-1.676,0.613-2.527,0.621
					c-5.514,0.052-11.028,0.048-16.542,0.018c-3.355-0.016-4.757-3.359-4.375-5.643c0.321-1.926,1.24-3.348,3.185-3.937
					c0.312-0.095,0.658-0.123,0.987-0.124C391.944,305.78,394.809,305.785,397.672,305.785z M397.947,312.631
					c2.586,0,5.173,0.006,7.758-0.004c1.3-0.004,2.127-0.732,2.049-1.905c-0.09-1.404-0.734-2.105-2.079-2.089
					c-4.957,0.057-9.913,0.022-14.868,0.02c-0.307,0-0.618-0.001-0.917-0.05c-0.897-0.145-1.696,0.288-2.008,1.112
					c-0.61,1.617,0.349,2.898,2.216,2.91C392.714,312.643,395.331,312.631,397.947,312.631z"/>
			</g>
			<g>
				<path fill-rule="evenodd" clip-rule="evenodd" fill="#F2F2F2" d="M397.675,316.332c1.911,0,3.819,0,5.73,0
					c2.078,0,3.37,0.871,3.793,2.966c0.39,1.928,0.277,3.896-1.573,5.177c-0.538,0.371-1.282,0.612-1.938,0.62
					c-3.973,0.057-7.946,0.042-11.919,0.022c-1.889-0.011-3.572-1.735-3.613-3.627c-0.028-1.227-0.058-2.439,0.658-3.542
					c0.639-0.984,1.459-1.614,2.672-1.616C393.549,316.33,395.612,316.332,397.675,316.332z M397.732,322.251
					c1.878,0,3.757-0.012,5.64,0.007c0.725,0.008,1.099-0.279,1.068-1.03c-0.012-0.277-0.004-0.557-0.003-0.831
					c0.006-0.81-0.305-1.218-1.204-1.209c-3.635,0.034-7.273,0.012-10.908,0.016c-1.051,0-1.515,0.382-1.451,1.399
					c0.057,0.894,0.391,1.715,1.497,1.669C394.155,322.197,395.944,322.251,397.732,322.251z"/>
			</g>
			<g>
				<path fill-rule="evenodd" clip-rule="evenodd" fill="#FFFFFF" d="M397.639,291.166c-2.959,0-5.927-0.116-8.878,0.046
					c-1.702,0.093-2.785-0.739-3.789-1.801c-2.107-2.229-3.781-4.773-4.985-7.593c-1.172-2.742-2.129-5.55-2.104-8.601
					c0.029-3.609,1.821-5.917,5.316-6.743c1.057-0.251,2.124-0.682,3.182-0.664c0.975,0.017,1.989,0.424,2.908,0.834
					c1.353,0.6,2.583,1.499,3.962,2.015c3.268,1.229,6.499,0.822,9.621-0.62c0.909-0.42,1.826-0.861,2.653-1.417
					c1.46-0.978,2.965-1.162,4.648-0.711c2.034,0.545,3.99,1.161,5.665,2.541c0.953,0.787,1.31,1.796,1.54,2.886
					c0.571,2.714-0.037,5.303-0.901,7.871c-1.299,3.854-3.201,7.34-6.039,10.281c-1.091,1.132-2.289,1.816-4.014,1.721
					C403.504,291.049,400.567,291.166,397.639,291.166z"/>
			</g>
			<g>
				<path fill-rule="evenodd" clip-rule="evenodd" fill="#8FDBF9" d="M397.713,297.923c3.173,0,6.345-0.002,9.516,0
					c1.25,0.001,2.173,0.82,2.204,1.943c0.031,1.119-0.965,2.031-2.225,2.032c-6.283,0.001-12.567,0-18.848,0
					c-0.84,0-1.523-0.253-1.992-1.028c-0.45-0.742-0.535-1.513,0.05-2.103c0.418-0.423,1.108-0.793,1.687-0.807
					C391.306,297.883,394.509,297.923,397.713,297.923z"/>
			</g>
			<g>
				<path fill-rule="evenodd" clip-rule="evenodd" fill="#8FDBF9" d="M397.947,312.631c-2.617,0-5.233,0.012-7.85-0.006
					c-1.867-0.012-2.826-1.293-2.216-2.91c0.312-0.824,1.111-1.257,2.008-1.112c0.299,0.049,0.611,0.05,0.917,0.05
					c4.955,0.003,9.911,0.037,14.868-0.02c1.345-0.017,1.989,0.685,2.079,2.089c0.078,1.173-0.749,1.901-2.049,1.905
					C403.12,312.637,400.533,312.631,397.947,312.631z"/>
			</g>
		</g>
		<g>
			<path fill-rule="evenodd" clip-rule="evenodd" fill="#8FDBF9" d="M397.783,322.254c-1.785,0-3.576-0.055-5.36,0.02
				c-1.105,0.046-1.438-0.775-1.495-1.671c-0.066-1.018,0.398-1.397,1.451-1.397c3.634-0.004,7.271,0.019,10.907-0.016
				c0.9-0.008,1.209,0.399,1.206,1.207c-0.002,0.276-0.01,0.556,0.001,0.833c0.032,0.749-0.345,1.036-1.069,1.03
				C401.543,322.241,399.664,322.254,397.783,322.254z"/>
		</g>
	</g>
</g>
</svg>
