<?xml version="1.0" encoding="utf-8"?>
<!-- Generator: Adobe Illustrator 16.0.0, SVG Export Plug-In . SVG Version: 6.00 Build 0)  -->
<!DOCTYPE svg PUBLIC "-//W3C//DTD SVG 1.1//EN" "http://www.w3.org/Graphics/SVG/1.1/DTD/svg11.dtd">
<svg version="1.1" id="Capa_1" xmlns="http://www.w3.org/2000/svg" xmlns:xlink="http://www.w3.org/1999/xlink" x="0px" y="0px"
	 width="175.838px" height="175.839px" viewBox="312.478 203.182 175.838 175.839"
	 enable-background="new 312.478 203.182 175.838 175.839" xml:space="preserve">
<g>
	<g>
		<path fill-rule="evenodd" clip-rule="evenodd" fill="#ED9893" d="M487.85,290.867c0,48.429-39.258,87.687-87.686,87.687
			c-48.428,0-87.686-39.258-87.686-87.687"/>
	</g>
	<g>
		<path fill-rule="evenodd" clip-rule="evenodd" fill="#3E465B" d="M312.478,290.867c0-48.427,39.258-87.685,87.686-87.685
			c48.428,0,87.686,39.258,87.686,87.685"/>
	</g>
</g>
<g>
	<path fill-rule="evenodd" clip-rule="evenodd" fill="#FFFFFF" d="M415.937,341.936c-0.768-6.541-1.225-13.136-2.417-19.602
		c-0.804-4.352-2.645-8.466-6.688-11.264c-5.455-3.775-13.076-1.836-16.461,3.585c-2.515,4.03-3.667,8.469-3.983,13.108
		c-0.34,4.981-0.41,9.979-0.795,14.957c-0.135,1.737-0.593,3.553-1.358,5.123c-1.682,3.448-3.592,3.353-6.26,1.162
		c-2.689-2.207-4.442-5.223-5.437-8.423c-1.909-6.139-3.792-12.323-5-18.614c-1.042-5.431-0.922-11.036-0.153-16.567
		c0.5-3.595,1.137-7.183,1.389-10.795c0.111-1.599-0.404-3.308-0.934-4.871c-3.047-8.989-6.544-17.852-9.17-26.954
		c-1.974-6.843-1.312-13.744,3.337-19.734c3.611-4.652,9.746-7.555,15.955-5.459c4.571,1.542,9.152,3.149,13.504,5.183
		c4.583,2.142,8.752,1.607,12.903-0.72c9.395-5.267,18.726-5.438,28.142,0.001c4.218,2.439,6.982,5.857,7.964,10.485
		c0.826,3.897,0.36,7.831-0.48,11.69c-1.82,8.355-5.189,16.21-8.465,24.086c-1.086,2.615-1.232,5.182-0.681,7.953
		c0.762,3.832,1.249,7.72,1.729,11.6c0.262,2.125,0.452,4.291,0.352,6.424c-0.316,6.682-1.229,13.281-3.157,19.741
		c-1.391,4.663-2.99,9.214-5.829,13.249c-0.699,0.992-1.579,1.91-2.535,2.678c-1.135,0.909-2.611,1.487-3.986,0.815
		c-1.592-0.778-1.827-2.491-1.944-4.051c-0.118-1.57-0.026-3.155-0.026-4.735C415.612,341.971,415.774,341.953,415.937,341.936z"/>
	<path fill="#E7ECED" d="M418.686,352.885c-0.722,0-1.415-0.16-2.063-0.478c-2.636-1.288-2.854-4.164-2.959-5.547
		c-0.087-1.177-0.067-2.337-0.047-3.46c0.009-0.47,0.017-0.942,0.017-1.412v-1.628l0.293-0.032
		c-0.149-1.366-0.292-2.733-0.429-4.068c-0.461-4.487-0.939-9.131-1.766-13.596c-0.853-4.624-2.795-7.926-5.935-10.1
		c-1.547-1.071-3.381-1.637-5.306-1.637c-3.485,0-6.773,1.797-8.581,4.69c-2.171,3.478-3.386,7.49-3.711,12.269
		c-0.155,2.278-0.256,4.604-0.354,6.861c-0.115,2.654-0.234,5.402-0.443,8.11c-0.156,2.018-0.701,4.07-1.536,5.78
		c-0.45,0.925-1.82,3.735-4.689,3.738c-1.338,0-2.724-0.626-4.356-1.968c-2.75-2.256-4.832-5.469-6.02-9.289
		c-2.054-6.603-3.852-12.576-5.048-18.809c-0.998-5.191-1.053-10.805-0.168-17.16c0.132-0.95,0.273-1.9,0.415-2.848
		c0.383-2.572,0.78-5.23,0.96-7.823c0.09-1.284-0.388-2.822-0.843-4.161c-1.035-3.059-2.145-6.161-3.218-9.161
		c-2.082-5.814-4.231-11.827-5.976-17.873c-2.292-7.943-1.032-15.326,3.646-21.352c3.333-4.293,8.272-6.855,13.216-6.855
		c1.606,0,3.207,0.265,4.754,0.788c4.444,1.5,9.162,3.141,13.693,5.258c3.796,1.774,7.262,1.575,11.248-0.658
		c5.023-2.819,10.092-4.247,15.061-4.247c4.979,0,9.983,1.433,14.875,4.259c4.807,2.777,7.778,6.708,8.833,11.68
		c0.976,4.598,0.255,9.071-0.481,12.454c-1.754,8.052-4.937,15.696-8.017,23.087l-0.545,1.31c-0.899,2.165-1.083,4.358-0.578,6.902
		c0.795,3.999,1.302,8.106,1.75,11.732c0.229,1.856,0.478,4.302,0.363,6.729c-0.353,7.479-1.409,14.077-3.229,20.178
		c-1.381,4.622-3.073,9.492-6.086,13.773c-0.775,1.104-1.772,2.158-2.882,3.05C421.315,352.361,419.981,352.885,418.686,352.885z
		 M417.246,343.616c-0.018,1.032-0.031,2.01,0.042,2.973c0.123,1.63,0.357,2.275,0.929,2.552c0.151,0.076,0.3,0.108,0.469,0.108
		c0.445,0,1.023-0.258,1.584-0.705c0.848-0.683,1.603-1.48,2.186-2.311c2.562-3.64,4.082-7.718,5.575-12.721
		c1.734-5.813,2.743-12.129,3.083-19.308c0.101-2.155-0.13-4.4-0.341-6.115c-0.44-3.563-0.938-7.601-1.708-11.469
		c-0.644-3.238-0.387-6.183,0.787-9.005l0.548-1.312c3.015-7.242,6.134-14.731,7.818-22.463c0.659-3.028,1.309-7.006,0.478-10.925
		c-0.844-3.979-3.165-7.017-7.095-9.289c-4.333-2.504-8.727-3.772-13.059-3.772c-4.339,0-8.808,1.272-13.285,3.782
		c-2.761,1.548-5.399,2.3-8.067,2.3c-2.15,0-4.335-0.511-6.495-1.52c-4.36-2.038-8.968-3.64-13.314-5.106
		c-1.174-0.397-2.382-0.598-3.593-0.598c-3.829,0-7.697,2.037-10.346,5.449c-3.991,5.143-5.01,11.239-3.025,18.117
		c1.711,5.936,3.843,11.895,5.904,17.657c1.079,3.014,2.194,6.131,3.24,9.217c0.568,1.675,1.162,3.625,1.025,5.581
		c-0.191,2.735-0.598,5.465-0.991,8.105c-0.14,0.938-0.28,1.875-0.41,2.813c-0.828,5.954-0.783,11.181,0.138,15.974
		c1.161,6.048,2.929,11.918,4.95,18.417c0.977,3.138,2.656,5.753,4.854,7.559c1.254,1.029,1.853,1.141,2.05,1.141
		c0.375,0,0.908-0.634,1.425-1.696c0.638-1.31,1.058-2.895,1.178-4.468c0.206-2.647,0.323-5.363,0.435-7.988
		c0.099-2.275,0.2-4.628,0.359-6.951c0.368-5.385,1.759-9.948,4.256-13.946c2.463-3.944,6.933-6.397,11.662-6.397
		c2.666,0,5.217,0.787,7.373,2.279c3.97,2.748,6.404,6.814,7.44,12.429c0.852,4.611,1.337,9.326,1.808,13.885
		c0.197,1.917,0.401,3.897,0.629,5.836l0.214,1.814L417.246,343.616z"/>
</g>
<g>
	<path fill-rule="evenodd" clip-rule="evenodd" fill="#FFFFFF" d="M437.668,240.487c3.586-1.277,6.012-3.616,7.009-7.63
		c1.11,3.883,3.408,6.348,7.181,7.685c-2.012,0.459-3.51,1.4-4.603,2.78c-1.052,1.326-1.839,2.861-2.679,4.204
		C443.605,244.219,441.351,241.777,437.668,240.487z"/>
</g>
<g>
	<path fill-rule="evenodd" clip-rule="evenodd" fill="#FFFFFF" d="M448.509,246.022c2.319-0.827,3.889-2.341,4.532-4.937
		c0.72,2.512,2.205,4.105,4.646,4.972c-1.301,0.297-2.27,0.905-2.977,1.796c-0.681,0.859-1.189,1.852-1.732,2.721
		C452.349,248.437,450.891,246.856,448.509,246.022z"/>
</g>
</svg>
