<?xml version="1.0" encoding="utf-8"?>
<!-- Generator: Adobe Illustrator 16.0.0, SVG Export Plug-In . SVG Version: 6.00 Build 0)  -->
<!DOCTYPE svg PUBLIC "-//W3C//DTD SVG 1.1//EN" "http://www.w3.org/Graphics/SVG/1.1/DTD/svg11.dtd">
<svg version="1.1" id="Capa_1" xmlns="http://www.w3.org/2000/svg" xmlns:xlink="http://www.w3.org/1999/xlink" x="0px" y="0px"
	 width="175.838px" height="175.839px" viewBox="312.478 203.182 175.838 175.839"
	 enable-background="new 312.478 203.182 175.838 175.839" xml:space="preserve">
<g>
	<path fill-rule="evenodd" clip-rule="evenodd" fill="#ED9893" d="M488.316,291.1c0,48.557-39.363,87.92-87.92,87.92
		s-87.919-39.363-87.919-87.92"/>
	<path fill-rule="evenodd" clip-rule="evenodd" fill="#3E465B" d="M312.477,291.1c0-48.557,39.363-87.919,87.919-87.919
		s87.92,39.363,87.92,87.919"/>
</g>
<g>
	<rect x="363.709" y="263.811" fill="#C7CAC7" width="73.803" height="11.354"/>
	<rect x="358.032" y="267.595" fill="#8FDBF9" width="5.677" height="3.785"/>
	<rect x="437.512" y="267.595" fill="#8FDBF9" width="5.678" height="3.785"/>
	<path fill="#E7ECED" d="M408.074,313.478c-7.469-4.447-14.396,0.098-18.721,6.424c-0.706,1.031-1.321,2.098-1.902,3.178
		c0.17,0.406,0.335,0.799,0.522,1.244c2.124,5.025,7.966,16.045,15.015,13.953c3.566-1.059,5.443-5.105,6.93-8.158
		c1.154-2.371,3.354-6.018,4.441-9.238C412.973,317.899,411.072,315.261,408.074,313.478z"/>
	<path fill="#FFFFFF" d="M447.102,263.811c-0.256-2.634-0.678-2.884-1.344-5.403c-1.594-6.023-6.447-11.091-11.955-14.634
		c-8.164-5.25-19.342-5.982-28.617-2.144c-0.34,0.14-0.666,0.297-1,0.412c-4.334,1.503-3.533,1.921-7.882,0.64
		c-7.57-2.231-17.928-3.939-25.491-1.26c-10.702,3.791-15.724,11.744-16.566,22.389H447.102z"/>
	<path fill="#FFFFFF" d="M354.147,281.669c2.865,19.042,5.145,39.342,12.563,57.254c1.36,3.283,3.929,10.045,7.63,10.045
		c3.488-1.477,4.905-4.775,6.19-8.072c2.78-7.131,4.44-14.58,8.825-20.994c4.326-6.326,11.25-10.875,18.721-6.426
		c7.496,4.463,8.289,14.156,10.725,21.658c1.98,6.105,7.006,20.537,13.314,9.486c3.984-6.984,5.436-14.916,7.174-22.664
		c3.438-15.349,8.971-30.479,7.391-46.792h-92.855C353.573,278.361,353.681,278.575,354.147,281.669z"/>
	<rect x="363.709" y="267.595" fill="#8FDBF9" width="73.803" height="3.785"/>
	<path fill="#E7ECED" d="M400.611,254.349c12.219,0,22.562-5.787,26.113-13.78c-6.912-2.084-14.732-1.753-21.541,1.062
		c-0.34,0.14-0.666,0.297-1,0.412c-4.334,1.503-3.533,1.921-7.883,0.64c-6.411-1.892-14.811-3.376-21.83-2.167
		C378,248.537,388.365,254.349,400.611,254.349z"/>
	<path fill="#E7ECED" d="M446.68,275.165c0,0-26.041,8.832-28.09,22.709c-1.834,12.417-24.37,15.239-38.811-1.021
		c-2.485-2.797-4.231-6.148-5.517-9.661c-1.622-4.431-6.387-12.028-20.016-12.028H446.68z"/>
</g>
</svg>
