<?xml version="1.0" encoding="utf-8"?>
<!-- Generator: Adobe Illustrator 16.0.0, SVG Export Plug-In . SVG Version: 6.00 Build 0)  -->
<!DOCTYPE svg PUBLIC "-//W3C//DTD SVG 1.1//EN" "http://www.w3.org/Graphics/SVG/1.1/DTD/svg11.dtd">
<svg version="1.1" id="Capa_1" xmlns="http://www.w3.org/2000/svg" xmlns:xlink="http://www.w3.org/1999/xlink" x="0px" y="0px"
	 width="175.838px" height="175.839px" viewBox="312.478 203.182 175.838 175.839"
	 enable-background="new 312.478 203.182 175.838 175.839" xml:space="preserve">
<g>
	<g>
		<path fill-rule="evenodd" clip-rule="evenodd" fill="#ED9893" d="M488.316,291.101c0,48.557-39.362,87.919-87.919,87.919
			s-87.919-39.362-87.919-87.919"/>
		<path fill-rule="evenodd" clip-rule="evenodd" fill="#3E465B" d="M312.478,291.101c0-48.557,39.363-87.919,87.919-87.919
			s87.919,39.363,87.919,87.919"/>
	</g>
	<g>
		<g>
			<path fill-rule="evenodd" clip-rule="evenodd" fill="#E7ECED" d="M400.402,291.271c-6.097,0-12.199-0.153-18.289,0.057
				c-3.687,0.129-6.645-1.197-9.064-3.673c-8.398-8.596-14.053-18.728-16.243-30.604c-0.752-4.075-0.856-8.254,0.293-12.341
				c1.172-4.168,3.542-7.439,7.296-9.645c3.917-2.3,8.255-3.453,12.663-4.21c3.862-0.663,7.365,0.73,10.568,2.81
				c3.293,2.137,6.749,3.87,10.698,4.26c3.128,0.309,6.08-0.612,8.886-1.895c2.034-0.929,4.053-1.939,5.937-3.137
				c3.72-2.363,7.591-2.758,11.843-1.766c5.037,1.176,9.826,2.657,13.967,5.991c3.076,2.478,4.51,5.675,5.152,9.353
				c1.389,7.935-0.613,15.368-3.762,22.525c-3.039,6.905-6.925,13.306-12.421,18.604c-2.483,2.394-5.276,3.797-8.874,3.711
				C412.839,291.165,406.619,291.271,400.402,291.271z M400.25,285.703c5.682,0,11.375-0.227,17.038,0.087
				c3.347,0.186,5.667-1.144,7.784-3.339c5.504-5.703,9.192-12.465,11.71-19.939c1.677-4.98,2.857-10,1.749-15.264
				c-0.445-2.114-1.138-4.071-2.988-5.597c-3.248-2.676-7.039-3.872-10.983-4.927c-3.269-0.875-6.185-0.518-9.016,1.379
				c-1.608,1.078-3.382,1.933-5.147,2.747c-6.055,2.795-12.32,3.585-18.66,1.204c-2.672-1.003-5.058-2.744-7.68-3.91
				c-1.785-0.793-3.748-1.586-5.643-1.617c-2.05-0.034-4.118,0.801-6.171,1.287c-6.776,1.602-10.253,6.079-10.308,13.078
				c-0.046,5.916,1.808,11.363,4.081,16.681c2.336,5.468,5.582,10.403,9.668,14.726c1.947,2.059,4.046,3.674,7.35,3.492
				C388.756,285.477,394.51,285.703,400.25,285.703z"/>
			<path fill-rule="evenodd" clip-rule="evenodd" fill="#F2F2F2" d="M400.288,293.24c6.272,0,12.546-0.007,18.819,0.002
				c5.69,0.008,9.127,3.297,9.49,8.619c0.333,4.863-2.624,10.064-8.996,10.164c-12.901,0.199-25.809,0.134-38.713,0.011
				c-3.579-0.034-6.313-1.997-7.782-5.293c-1.653-3.708-1.187-7.269,1.493-10.388c1.83-2.131,4.175-3.164,7.048-3.135
				C387.86,293.283,394.074,293.24,400.288,293.24z M400.393,298.808c-6.212,0-12.426-0.077-18.634,0.071
				c-1.121,0.027-2.458,0.746-3.272,1.566c-1.134,1.145-0.968,2.639-0.097,4.078c0.911,1.503,2.232,1.994,3.862,1.994
				c12.185,0,24.369,0.002,36.554-0.001c2.445-0.001,4.377-1.771,4.316-3.94c-0.061-2.178-1.854-3.766-4.275-3.768
				C412.696,298.805,406.545,298.808,400.393,298.808z"/>
			<path fill-rule="evenodd" clip-rule="evenodd" fill="#F2F2F2" d="M400.316,314.054c5.258,0,10.52,0.127,15.771-0.038
				c4.65-0.146,7.896,2.658,8.873,6.151c1.316,4.706-0.285,9.308-3.937,11.479c-1.39,0.828-3.251,1.184-4.903,1.199
				c-10.693,0.104-21.387,0.095-32.081,0.037c-6.502-0.034-9.223-6.515-8.483-10.945c0.624-3.734,2.405-6.49,6.177-7.635
				c0.607-0.185,1.275-0.236,1.915-0.238C389.205,314.047,394.761,314.054,400.316,314.054z M400.848,327.331
				c5.016,0,10.031,0.013,15.046-0.005c2.521-0.009,4.122-1.422,3.974-3.697c-0.177-2.723-1.426-4.082-4.031-4.052
				c-9.611,0.111-19.225,0.046-28.837,0.04c-0.594,0-1.196-0.003-1.779-0.098c-1.737-0.281-3.289,0.56-3.894,2.16
				c-1.185,3.134,0.678,5.619,4.297,5.643C390.698,327.355,395.773,327.331,400.848,327.331z"/>
			<path fill-rule="evenodd" clip-rule="evenodd" fill="#F2F2F2" d="M400.321,334.508c3.704,0,7.407,0,11.11,0.001
				c4.032,0.001,6.537,1.694,7.356,5.755c0.755,3.737,0.54,7.553-3.048,10.037c-1.043,0.723-2.49,1.187-3.76,1.204
				c-7.703,0.108-15.41,0.081-23.115,0.042c-3.665-0.018-6.927-3.363-7.009-7.032c-0.053-2.38-0.111-4.733,1.275-6.869
				c1.24-1.911,2.831-3.131,5.184-3.135C392.317,334.504,396.319,334.509,400.321,334.508z M400.43,345.991
				c3.645,0,7.291-0.023,10.936,0.012c1.408,0.014,2.136-0.542,2.075-1.999c-0.022-0.537-0.006-1.076-0.003-1.613
				c0.008-1.568-0.592-2.358-2.338-2.342c-7.051,0.066-14.104,0.025-21.154,0.029c-2.041,0-2.94,0.738-2.815,2.715
				c0.11,1.732,0.758,3.326,2.902,3.237C393.493,345.887,396.963,345.992,400.43,345.991z"/>
			<path fill-rule="evenodd" clip-rule="evenodd" fill="#FFFFFF" d="M400.25,285.703c-5.74,0-11.494-0.227-17.217,0.088
				c-3.304,0.182-5.403-1.434-7.35-3.492c-4.087-4.322-7.332-9.258-9.668-14.726c-2.272-5.317-4.126-10.765-4.081-16.681
				c0.054-6.999,3.532-11.477,10.308-13.078c2.054-0.486,4.122-1.321,6.171-1.287c1.896,0.031,3.858,0.824,5.643,1.617
				c2.623,1.166,5.008,2.907,7.68,3.91c6.339,2.381,12.605,1.591,18.66-1.204c1.766-0.814,3.539-1.669,5.147-2.747
				c2.831-1.896,5.747-2.254,9.016-1.379c3.944,1.055,7.735,2.251,10.983,4.927c1.851,1.525,2.543,3.482,2.988,5.597
				c1.108,5.264-0.072,10.283-1.749,15.264c-2.518,7.475-6.206,14.236-11.71,19.939c-2.117,2.195-4.438,3.524-7.784,3.339
				C411.625,285.477,405.932,285.703,400.25,285.703z"/>
			<path fill-rule="evenodd" clip-rule="evenodd" fill="#8FDBF9" d="M400.393,298.808c6.152,0,12.304-0.003,18.455,0.001
				c2.422,0.002,4.215,1.59,4.275,3.768c0.061,2.169-1.871,3.939-4.316,3.94c-12.186,0.003-24.37,0.001-36.554,0.001
				c-1.63,0-2.952-0.491-3.862-1.994c-0.871-1.439-1.037-2.934,0.097-4.078c0.813-0.82,2.151-1.539,3.272-1.566
				C387.967,298.73,394.181,298.808,400.393,298.808z"/>
			<path fill-rule="evenodd" clip-rule="evenodd" fill="#8FDBF9" d="M400.848,327.331c-5.075,0-10.15,0.024-15.225-0.009
				c-3.62-0.023-5.482-2.509-4.297-5.643c0.605-1.601,2.157-2.441,3.894-2.16c0.583,0.095,1.186,0.098,1.779,0.098
				c9.612,0.006,19.226,0.071,28.837-0.04c2.605-0.03,3.854,1.329,4.031,4.052c0.148,2.275-1.453,3.688-3.974,3.697
				C410.879,327.344,405.863,327.331,400.848,327.331z"/>
		</g>
		<path fill-rule="evenodd" clip-rule="evenodd" fill="#8FDBF9" d="M400.531,345.995c-3.465,0-6.936-0.105-10.396,0.038
			c-2.145,0.089-2.792-1.505-2.902-3.237c-0.125-1.977,0.774-2.715,2.815-2.715c7.052-0.004,14.104,0.037,21.154-0.029
			c1.745-0.017,2.346,0.773,2.338,2.342c-0.003,0.537-0.019,1.076,0.003,1.613c0.061,1.457-0.666,2.013-2.075,1.999
			C407.822,345.971,404.178,345.994,400.531,345.995z"/>
	</g>
</g>
</svg>
