<?xml version="1.0" encoding="utf-8"?>
<!-- Generator: Adobe Illustrator 16.0.0, SVG Export Plug-In . SVG Version: 6.00 Build 0)  -->
<!DOCTYPE svg PUBLIC "-//W3C//DTD SVG 1.1//EN" "http://www.w3.org/Graphics/SVG/1.1/DTD/svg11.dtd">
<svg version="1.1" id="Capa_1" xmlns="http://www.w3.org/2000/svg" xmlns:xlink="http://www.w3.org/1999/xlink" x="0px" y="0px"
	 width="175.838px" height="175.839px" viewBox="312.478 203.182 175.838 175.839"
	 enable-background="new 312.478 203.182 175.838 175.839" xml:space="preserve">
<path fill="#3E465B" d="M399.976,203.353c-48.122,0-87.498,39.37-87.498,87.5c0,48.126,39.375,87.496,87.498,87.496
	c48.127,0,87.497-39.369,87.497-87.496C487.473,242.723,448.103,203.353,399.976,203.353z"/>
<path fill="#ED9893" d="M481.456,259.042c-12.793-32.519-44.561-55.689-81.48-55.689c-36.878,0-68.619,23.122-81.439,55.586"/>
<path fill="#ED9893" d="M318.537,322.657c12.792,32.52,44.559,55.69,81.481,55.69c36.877,0,68.618-23.121,81.438-55.586"/>
<g>
	<path fill="#FFFFFF" d="M455.751,330.222c-10.938,0-15.306-8.749-17.496-17.498c-2.188,9.85-6.557,21.875-19.684,21.875
		c-12.038,0-16.405-12.025-18.596-21.875c-2.189,10.939-6.563,21.875-18.595,21.875c-12.027,0-17.496-12.025-19.686-21.875
		c-2.19,8.749-6.563,17.498-17.5,17.498c-21.875,0-20.78-32.814-20.78-32.814s2.189-6.555,18.595-6.555
		c-16.406,0-18.595-5.47-18.595-5.47s-1.095-32.812,20.78-32.812c10.936,0,15.31,8.747,17.5,17.496
		c2.189-9.838,6.563-21.875,19.686-21.875c12.031-1.09,16.405,10.937,18.595,20.786c2.19-10.938,6.558-21.875,18.596-21.875
		c12.027,0,17.495,12.026,19.684,21.875c2.19-8.748,6.558-17.496,17.496-17.496c21.874,0,20.784,32.812,20.784,32.812
		s-3.278,6.56-19.685,6.56c-13.127,0-17.506-3.28-19.686-4.379c-2.188,2.189-7.657,4.379-17.504,4.379
		c-13.128,0-17.495-2.19-19.686-4.379c-1.095,1.1-6.563,4.379-17.5,4.379c10.937,0,15.311,3.275,17.5,4.376
		c2.19-2.19,6.558-4.376,19.686-4.376c10.938,0,15.315,2.186,18.594,4.376c0-1.102,5.469-4.376,18.596-4.376
		c16.406,0,19.685,6.555,19.685,6.555S477.625,330.222,455.751,330.222z"/>
	<path fill="#3E465B" d="M362.79,286.473c-1.095,1.1-5.468,4.379-17.5,4.379c12.033,0,16.406,3.275,17.5,4.376
		c2.185-2.19,6.563-4.376,16.406-4.376C369.354,290.852,364.975,288.662,362.79,286.473z"/>
</g>
</svg>
