<?xml version="1.0" encoding="utf-8"?>
<!-- Generator: Adobe Illustrator 16.0.0, SVG Export Plug-In . SVG Version: 6.00 Build 0)  -->
<!DOCTYPE svg PUBLIC "-//W3C//DTD SVG 1.1//EN" "http://www.w3.org/Graphics/SVG/1.1/DTD/svg11.dtd">
<svg version="1.1" id="Capa_1" xmlns="http://www.w3.org/2000/svg" xmlns:xlink="http://www.w3.org/1999/xlink" x="0px" y="0px"
	 width="175.838px" height="175.839px" viewBox="312.478 203.182 175.838 175.839"
	 enable-background="new 312.478 203.182 175.838 175.839" xml:space="preserve">
<g>
	<path fill="#3E465B" d="M455.331,324.905c-8.714-5.799-15.209-20.537-15.143-27.946c0.133-15.336,1.175-33.539,5.747-48.129
		h-93.189c4.042,14.964,7.414,33.265,8.324,48.129c0.892,14.582-8.908,24.923-19.436,28.581c-6.395,2.223-13.291,4.061-20.182,4.925
		c14.405,29.169,44.435,49.237,79.166,49.237c34.52,0,64.342-19.854,78.844-48.732C470.825,331.231,462.437,329.635,455.331,324.905
		z"/>
	<path fill="#ED9893" d="M323.322,248.833h154.594c-15.029-27.215-44.008-45.652-77.297-45.652
		C367.331,203.182,338.354,221.619,323.322,248.833z"/>
	<g>
		<path fill="#E7ECED" d="M438.918,268.744c3.225,13.924,0.263,28.728-8.579,39.909c-7.39,9.347-17.059,18.805-25.61,24.374
			c-1.781,1.162-4.538,1.358-6.465,0.462c-10.889-5.077-38.372-31.771-37.172-47.211c1.056-13.589,1.734-27.318,5.624-40.368
			c4.666-15.656,17.296-21.59,32.904-21.423c15.891,0.171,28.5,6.099,33.578,22.315
			C435.451,254.004,437.215,261.366,438.918,268.744z"/>
	</g>
	<path fill="#E7ECED" d="M462.752,228.765c-8.686,1.951-12.669,6.954-16.745,19.801c-4.641,14.637-5.688,32.97-5.821,48.397
		c-0.063,7.408,6.432,22.147,15.144,27.944c7.126,4.738,15.533,6.337,24.199,6.062c5.97-11.896,9.352-25.312,9.352-39.528
		C488.88,266.93,478.882,244.758,462.752,228.765z"/>
	<path fill="#E7ECED" d="M351.702,245.029c-2.374-8.214-7.794-12.636-14.456-14.986c-15.394,15.887-24.886,37.529-24.886,61.399
		c0,14.016,3.281,27.257,9.094,39.026c6.891-0.865,13.787-2.703,20.182-4.924c10.527-3.658,20.33-14,19.436-28.581
		C360.081,280.826,356.2,260.591,351.702,245.029z"/>
	<path fill="#FFFFFF" d="M398.051,276.371c-2.282-1.364-4.903-2.183-7.362-2.256c-2.38-0.07-4.453-1.725-4.589-4.105
		c-0.003-0.03-0.003-0.058-0.007-0.088c-0.429-7.806-12.603-7.85-12.173,0c0.085,1.545,0.271,3.059,0.423,4.58
		c-0.292,0.45-0.499,0.983-0.45,1.686c0.544,8.211-2.392,17.43,0.996,25.282c2.806,6.498,7.973,10.713,13.689,14.417
		c1.973,3.129,4.075,6.206,6.431,9.173c1.93,2.43,4.426,2.523,6.45,1.398c0.997,0.449,2.2,0.383,3.195-0.653
		C419.337,310.527,416.227,287.208,398.051,276.371z"/>
	<path fill="#FFFFFF" d="M450.343,310.168c4.527,8.132,12.568,13.127,21.784,13.952c3.909,0.35,3.877-5.74,0-6.088
		c-7.073-0.633-13.099-4.778-16.53-10.938C453.692,303.668,448.434,306.735,450.343,310.168L450.343,310.168z"/>
	<path fill="#FFFFFF" d="M327.093,324.648c15.57-0.051,27.708-12.082,27.967-27.637c0.063-3.926-6.023-3.92-6.087,0
		c-0.204,12.247-9.642,21.508-21.879,21.551C323.167,318.578,323.167,324.665,327.093,324.648L327.093,324.648z"/>
</g>
</svg>
